<?xml version="1.0" encoding="utf-8"?>
<!-- Generator: Adobe Illustrator 16.0.0, SVG Export Plug-In . SVG Version: 6.00 Build 0)  -->
<!DOCTYPE svg PUBLIC "-//W3C//DTD SVG 1.1//EN" "http://www.w3.org/Graphics/SVG/1.1/DTD/svg11.dtd">
<svg version="1.1" id="Layer_1" xmlns="http://www.w3.org/2000/svg" xmlns:xlink="http://www.w3.org/1999/xlink" x="0px" y="0px"
	 width="1440px" height="800px" viewBox="0 0 1440 800" enable-background="new 0 0 1440 800" xml:space="preserve">
<g id="Layer_1_1_" display="none">
	
		<image display="inline" overflow="visible" enable-background="new    " width="1370" height="771" xlink:href="71B3C3F9.jpeg"  transform="matrix(1.0584 0 0 1.0574 4.9995 -7.623)">
	</image>
</g>
<g id="Layer_3">
	<rect x="-2.875" y="-140" fill="#35495E" width="1442.875" height="1080"/>
</g>
<g id="Layer_2">
	<path fill="#32465A" d="M1441,800V414.938c-109.048,67-285.746,94-395.804,59.24c-110.059-34.76-212.037-26.24-274.639-2.24
		c-62.601,24-165.591,101-359.454,14c-276.081-123.896-413.979-68-413.979-68V800H1441z"/>
	<path fill="#2A3D4F" d="M1441,800V439.938c-109.048,67-285.746,94-395.804,59.24c-110.059-34.76-212.037-26.24-274.639-2.24
		c-62.601,24-165.591,101-359.454,14c-276.081-123.896-413.979-68-413.979-68V800H1441z"/>
</g>
</svg>
